<svg width="33" height="32" viewBox="0 0 33 32" fill="none" xmlns="http://www.w3.org/2000/svg">
<g clip-path="url(#clip0_33_277)">
<path d="M16.5 32C25.3366 32 32.5 24.8366 32.5 16C32.5 7.16344 25.3366 0 16.5 0C7.66344 0 0.5 7.16344 0.5 16C0.5 24.8366 7.66344 32 16.5 32Z" fill="#F7931A"/>
<path d="M23.689 14.02C24.003 11.924 22.406 10.797 20.224 10.045L20.932 7.205L19.204 6.775L18.514 9.54C18.06 9.426 17.594 9.32 17.129 9.214L17.824 6.431L16.096 6L15.388 8.839C15.012 8.753 14.642 8.669 14.284 8.579L14.286 8.57L11.902 7.975L11.442 9.821C11.442 9.821 12.725 10.115 12.698 10.133C13.398 10.308 13.524 10.771 13.503 11.139L12.697 14.374C12.745 14.386 12.807 14.404 12.877 14.431L12.694 14.386L11.564 18.918C11.478 19.13 11.261 19.449 10.771 19.328C10.789 19.353 9.51498 19.015 9.51498 19.015L8.65698 20.993L10.907 21.554C11.325 21.659 11.735 21.769 12.138 21.872L11.423 24.744L13.15 25.174L13.858 22.334C14.33 22.461 14.788 22.579 15.236 22.691L14.53 25.519L16.258 25.949L16.973 23.083C19.921 23.641 22.137 23.416 23.07 20.75C23.822 18.604 23.033 17.365 21.482 16.558C22.612 16.298 23.462 15.555 23.689 14.02ZM19.739 19.558C19.206 21.705 15.591 20.544 14.419 20.253L15.369 16.448C16.541 16.741 20.298 17.32 19.739 19.558ZM20.274 13.989C19.787 15.942 16.779 14.949 15.804 14.706L16.664 11.256C17.639 11.499 20.782 11.952 20.274 13.989Z" fill="white"/>
</g>
<defs>
<clipPath id="clip0_33_277">
<rect width="32" height="32" fill="white" transform="translate(0.5)"/>
</clipPath>
</defs>
</svg>
