<svg width="60" height="60" viewBox="0 0 60 60" fill="none" xmlns="http://www.w3.org/2000/svg">
<path opacity="0.3" d="M47.5 27.5H52.5C53.8807 27.5 55 28.6193 55 30C55 31.3807 53.8807 32.5 52.5 32.5H47.5C46.1193 32.5 45 31.3807 45 30C45 28.6193 46.1193 27.5 47.5 27.5ZM7.5 27.5H12.5C13.8807 27.5 15 28.6193 15 30C15 31.3807 13.8807 32.5 12.5 32.5H7.5C6.11929 32.5 5 31.3807 5 30C5 28.6193 6.11929 27.5 7.5 27.5ZM30 5C31.3807 5 32.5 6.11929 32.5 7.5V12.5C32.5 13.8807 31.3807 15 30 15C28.6193 15 27.5 13.8807 27.5 12.5V7.5C27.5 6.11929 28.6193 5 30 5ZM30 45C31.3807 45 32.5 46.1193 32.5 47.5V52.5C32.5 53.8807 31.3807 55 30 55C28.6193 55 27.5 53.8807 27.5 52.5V47.5C27.5 46.1193 28.6193 45 30 45Z" fill="#6A6E87"/>
<path opacity="0.3" d="M30 35C32.7614 35 35 32.7614 35 30C35 27.2386 32.7614 25 30 25C27.2386 25 25 27.2386 25 30C25 32.7614 27.2386 35 30 35Z" fill="#6A6E87"/>
<path d="M30 42.5C36.9036 42.5 42.5 36.9036 42.5 30C42.5 23.0964 36.9036 17.5 30 17.5C23.0964 17.5 17.5 23.0964 17.5 30C17.5 36.9036 23.0964 42.5 30 42.5ZM30 47.5C20.335 47.5 12.5 39.665 12.5 30C12.5 20.335 20.335 12.5 30 12.5C39.665 12.5 47.5 20.335 47.5 30C47.5 39.665 39.665 47.5 30 47.5Z" fill="#6A6E87"/>
</svg>
