<svg width="60" height="61" viewBox="0 0 60 61" fill="none" xmlns="http://www.w3.org/2000/svg">
<path opacity="0.3" d="M25 14.125C25 12.0539 23.3211 10.375 21.25 10.375C19.1789 10.375 17.5 12.0539 17.5 14.125V39.125C17.5 41.1961 19.1789 42.875 21.25 42.875C23.3211 42.875 25 41.1961 25 39.125V14.125Z" fill="#6A6E87"/>
<path opacity="0.3" d="M37.5 26.625C37.5 24.5539 35.8211 22.875 33.75 22.875C31.6789 22.875 30 24.5539 30 26.625V39.125C30 41.1961 31.6789 42.875 33.75 42.875C35.8211 42.875 37.5 41.1961 37.5 39.125V26.625Z" fill="#6A6E87"/>
<path d="M12.5 47.875H50C51.3807 47.875 52.5 48.9943 52.5 50.375C52.5 51.7557 51.3807 52.875 50 52.875H10C8.61929 52.875 7.5 51.7557 7.5 50.375V10.375C7.5 8.99429 8.61929 7.875 10 7.875C11.3807 7.875 12.5 8.99429 12.5 10.375V47.875Z" fill="#6A6E87"/>
<path opacity="0.3" d="M50 31.625C50 29.5539 48.3211 27.875 46.25 27.875C44.1789 27.875 42.5 29.5539 42.5 31.625V39.125C42.5 41.1961 44.1789 42.875 46.25 42.875C48.3211 42.875 50 41.1961 50 39.125V31.625Z" fill="#6A6E87"/>
</svg>
