<svg width="60" height="61" viewBox="0 0 60 61" fill="none" xmlns="http://www.w3.org/2000/svg">
<g clip-path="url(#clip0_33_462)">
<path opacity="0.3" d="M33.75 7.875C33.75 6.49429 32.6307 5.375 31.25 5.375C29.8693 5.375 28.75 6.49429 28.75 7.875V12.875C28.75 14.2557 29.8693 15.375 31.25 15.375C32.6307 15.375 33.75 14.2557 33.75 12.875V7.875Z" fill="#6A6E87"/>
<path opacity="0.3" d="M33.75 42.875C33.75 41.4943 32.6307 40.375 31.25 40.375C29.8693 40.375 28.75 41.4943 28.75 42.875V50.375C28.75 51.7557 29.8693 52.875 31.25 52.875C32.6307 52.875 33.75 51.7557 33.75 50.375V42.875Z" fill="#6A6E87"/>
<path fill-rule="evenodd" clip-rule="evenodd" d="M38.7325 20.4849C38.0359 19.5982 37.1255 18.8936 36.0013 18.3711C34.8771 17.8486 33.7925 17.5874 32.7475 17.5874C32.2092 17.5874 31.6629 17.6349 31.1088 17.7299C30.5546 17.8249 30.0559 18.007 29.6125 18.2761C29.1692 18.5453 28.7971 18.8936 28.4963 19.3211C28.1954 19.7486 28.045 20.2949 28.045 20.9599C28.045 21.5299 28.1638 22.0049 28.4013 22.3849C28.6388 22.7649 28.9871 23.0974 29.4463 23.3824C29.9054 23.6674 30.4517 23.9286 31.085 24.1661C31.7184 24.4036 32.4309 24.6491 33.2225 24.9024C34.3625 25.2824 35.55 25.702 36.785 26.1611C38.02 26.6203 39.1442 27.2299 40.1575 27.9899C41.1709 28.7499 42.01 29.692 42.675 30.8161C43.34 31.9403 43.6725 33.3416 43.6725 35.0199C43.6725 36.9516 43.3163 38.622 42.6038 40.0311C41.8913 41.4403 40.9334 42.6041 39.73 43.5224C38.5267 44.4407 37.1492 45.1216 35.5975 45.5649C34.0459 46.0082 32.4467 46.2299 30.8 46.2299C28.3933 46.2299 26.0659 45.8103 23.8175 44.9711C21.5692 44.132 19.7009 42.9366 18.2125 41.3849L23.5325 35.9699C24.3559 36.9832 25.4404 37.8303 26.7863 38.5111C28.1321 39.192 29.47 39.5324 30.8 39.5324C31.4017 39.5324 31.9875 39.4691 32.5575 39.3424C33.1275 39.2157 33.6263 39.0099 34.0538 38.7249C34.4813 38.4399 34.8217 38.0599 35.075 37.5849C35.3284 37.1099 35.455 36.5399 35.455 35.8749C35.455 35.2416 35.2967 34.7032 34.98 34.2599C34.6634 33.8166 34.2121 33.4128 33.6263 33.0486C33.0404 32.6845 32.3121 32.352 31.4413 32.0511C30.5704 31.7503 29.5809 31.4257 28.4725 31.0774C27.3959 30.7291 26.3429 30.3174 25.3138 29.8424C24.2846 29.3674 23.3663 28.7578 22.5588 28.0136C21.7513 27.2695 21.1021 26.367 20.6113 25.3061C20.1204 24.2453 19.875 22.9549 19.875 21.4349C19.875 19.5666 20.255 17.9674 21.015 16.6374C21.775 15.3074 22.7725 14.2149 24.0075 13.3599C25.2425 12.5049 26.6358 11.8795 28.1875 11.4836C29.7392 11.0878 31.3067 10.8899 32.89 10.8899C34.79 10.8899 36.7296 11.2382 38.7088 11.9349C40.688 12.6316 42.4217 13.6607 43.91 15.0224L38.7325 20.4849Z" fill="#6A6E87"/>
</g>
<defs>
<clipPath id="clip0_33_462">
<rect width="60" height="60" fill="white" transform="translate(0 0.375)"/>
</clipPath>
</defs>
</svg>
