<svg width="60" height="61" viewBox="0 0 60 61" fill="none" xmlns="http://www.w3.org/2000/svg">
<path fill-rule="evenodd" clip-rule="evenodd" d="M34.2138 46.9381C39.7785 44.715 46.7072 43.2914 55 42.6675C55 42.4988 55 32.9207 55 13.9333H55C55 13.243 54.4404 12.6833 53.75 12.6833C53.7395 12.6833 53.7289 12.6835 53.7184 12.6838C46.6456 12.8628 39.5728 14.5241 32.5 17.6675C32.5 17.7788 32.5 27.1487 32.5 45.7773H32.5C32.5 46.4676 33.0597 47.0273 33.75 47.0273C33.9089 47.0273 34.0663 46.997 34.2138 46.9381Z" fill="#6A6E87"/>
<path opacity="0.3" fill-rule="evenodd" clip-rule="evenodd" d="M25.7862 46.9381C20.2215 44.715 13.2928 43.2914 5 42.6675C5 42.4988 5 32.9207 5 13.9333H5.00006C5.00006 13.243 5.55968 12.6833 6.25 12.6833C6.26055 12.6833 6.27109 12.6835 6.28163 12.6838C13.3544 12.8628 20.4272 14.5241 27.5 17.6675C27.5 17.7788 27.5 27.1487 27.5 45.7773H27.5C27.5 46.4676 26.9404 47.0273 26.25 47.0273C26.0912 47.0273 25.9338 46.997 25.7862 46.9381Z" fill="#6A6E87"/>
</svg>