<svg width="60" height="61" viewBox="0 0 60 61" fill="none" xmlns="http://www.w3.org/2000/svg">
<path opacity="0.3" d="M37.5 55.6675C44.4036 55.6675 50 50.071 50 43.1675C50 36.2639 44.4036 30.6675 37.5 30.6675C30.5964 30.6675 25 36.2639 25 43.1675C25 50.071 30.5964 55.6675 37.5 55.6675Z" fill="#6A6E87"/>
<path opacity="0.3" d="M22.5 55.6675C29.4036 55.6675 35 50.071 35 43.1675C35 36.2639 29.4036 30.6675 22.5 30.6675C15.5964 30.6675 10 36.2639 10 43.1675C10 50.071 15.5964 55.6675 22.5 55.6675Z" fill="#6A6E87"/>
<path opacity="0.3" d="M17.5 40.6675C24.4036 40.6675 30 35.071 30 28.1675C30 21.2639 24.4036 15.6675 17.5 15.6675C10.5964 15.6675 5 21.2639 5 28.1675C5 35.071 10.5964 40.6675 17.5 40.6675Z" fill="#6A6E87"/>
<path opacity="0.3" d="M42.5 40.6675C49.4036 40.6675 55 35.071 55 28.1675C55 21.2639 49.4036 15.6675 42.5 15.6675C35.5964 15.6675 30 21.2639 30 28.1675C30 35.071 35.5964 40.6675 42.5 40.6675Z" fill="#6A6E87"/>
<path opacity="0.3" d="M30 30.6675C36.9036 30.6675 42.5 25.071 42.5 18.1675C42.5 11.2639 36.9036 5.66748 30 5.66748C23.0964 5.66748 17.5 11.2639 17.5 18.1675C17.5 25.071 23.0964 30.6675 30 30.6675Z" fill="#6A6E87"/>
</svg>
