<svg xmlns="http://www.w3.org/2000/svg" fill="none" viewBox="0 0 113 30"><path fill="#9E8D69" fill-rule="evenodd" d="M29.98 18.71v-2.83H17.64v4.47h-4.28v-3.91c0-1.63.34-2.74 1-3.34.67-.6 1.99-.9 3.94-.9h11.43A15.04 15.04 0 0 0 15 0 15.03 15.03 0 0 0 .02 14.98c0 7.27 5.24 13.37 12.13 14.71l17.83-10.98Zm0 11.26V23.2l-11.06 6.76h11.06Zm14.35-22.4c3.27 0 5.71 1.56 6.83 4.37l-2.51.93a4.39 4.39 0 0 0-4.23-2.85c-3.15 0-5.27 2.56-5.27 5.89 0 3.33 2.08 5.9 5.25 5.9 2.88 0 4.3-1.86 4.52-4.03h-4.45v-2.37h7.24v.87c-.1 4.79-2.83 7.96-7.3 7.96-4.6 0-7.9-3.4-7.9-8.33 0-4.9 3.3-8.33 7.82-8.33ZM58.67 22.2c1.18 0 2.03-.5 2.53-1.53l2.08.62a4.74 4.74 0 0 1-4.64 2.96 5.49 5.49 0 0 1-5.64-5.7c0-3.3 2.22-5.78 5.37-5.78 2.95 0 5.3 2.05 5.34 5.78v.61h-8.2c.26 1.8 1.42 3.04 3.16 3.04Zm2.46-4.73c-.11-1.91-1.32-2.78-2.71-2.78-1.58 0-2.6.98-2.88 2.78h5.6Zm13.89-.48c0-2.64-1.44-4.22-3.8-4.22a3.8 3.8 0 0 0-3.4 1.78h-.04V13.1h-2.3v10.8h2.46v-6.2c0-1.63 1.12-2.77 2.56-2.77 1.28 0 2.03.89 2.03 2.53v6.44h2.49v-6.92Zm-1.48-6.66v-2.4h12.12v2.4H80.9V23.9h-2.6V10.32h-4.77Zm27.3 2.78h-2.38l-2.16 7.45h-.07l-2.3-7.45h-2.3l-2.34 7.45h-.07l-2.17-7.45h-2.63L87.9 24h2.38l2.42-7.72 2.4 7.71h2.28l3.47-10.89Zm6.03 11.14c-3.08 0-5.6-2.19-5.6-5.75 0-3.58 2.52-5.73 5.6-5.73 3.08 0 5.64 2.2 5.64 5.73a5.48 5.48 0 0 1-5.64 5.75Zm0-9.31c-1.85 0-3.1 1.46-3.1 3.56 0 2.12 1.25 3.56 3.1 3.56 1.9 0 3.13-1.44 3.13-3.56 0-2.1-1.23-3.56-3.13-3.56Z" clip-rule="evenodd"/></svg>