<svg id="Layer_1" data-name="Layer 1" xmlns="http://www.w3.org/2000/svg" width="160" height="65.8577" viewBox="0 0 160 65.8577"><defs><style>.cls-1{fill:#a57656;}</style></defs><rect class="cls-1" x="23.3673" y="60.0122" width="0.9296" height="5.3997"/><polygon class="cls-1" points="29.3 60.012 29.3 63.842 26.849 60.012 25.683 60.012 25.683 65.412 26.597 65.412 26.597 61.322 29.263 65.412 30.213 65.412 30.213 60.012 29.3 60.012"/><polygon class="cls-1" points="35.042 60.012 33.527 64.215 32.02 60.012 31.029 60.012 33.04 65.412 33.968 65.412 36.008 60.012 35.042 60.012"/><polygon class="cls-1" points="36.824 60.012 36.824 65.412 40.161 65.412 40.161 64.558 37.737 64.558 37.737 63.126 39.931 63.126 39.931 62.296 37.737 62.296 37.737 60.864 40.161 60.864 40.161 60.012 36.824 60.012"/><path class="cls-1" d="M44.0332,61.5348a.9972.9972,0,0,0-1.0589-.831.853.853,0,0,0-.928.7777.6991.6991,0,0,0,.63.6935l.7777.16a1.5918,1.5918,0,0,1,1.4615,1.552,1.7227,1.7227,0,0,1-1.911,1.6377,1.92,1.92,0,0,1-2.0871-1.66l.8536-.2425a1.1616,1.1616,0,0,0,1.2335,1.0815c.6467,0,.983-.3282.983-.7469,0-.3508-.2587-.6321-.7243-.7307l-.7615-.16a1.5338,1.5338,0,0,1-1.3709-1.5164,1.9083,1.9083,0,0,1,3.7248-.2732Z"/><polygon class="cls-1" points="45.489 60.012 45.489 60.872 47.241 60.872 47.241 65.412 48.155 65.412 48.155 60.872 49.913 60.872 49.913 60.012 45.489 60.012"/><polygon class="cls-1" points="55.439 60.012 53.711 64.131 51.959 60.012 50.74 60.012 50.74 65.412 51.632 65.412 51.632 61.451 53.299 65.412 54.091 65.412 55.774 61.435 55.774 65.412 56.681 65.412 56.681 60.012 55.439 60.012"/><polygon class="cls-1" points="58.088 60.012 58.088 65.412 61.423 65.412 61.423 64.558 59.001 64.558 59.001 63.126 61.195 63.126 61.195 62.296 59.001 62.296 59.001 60.864 61.423 60.864 61.423 60.012 58.088 60.012"/><polygon class="cls-1" points="66.24 60.012 66.24 63.842 63.788 60.012 62.624 60.012 62.624 65.412 63.537 65.412 63.537 61.322 66.203 65.412 67.154 65.412 67.154 60.012 66.24 60.012"/><polygon class="cls-1" points="67.98 60.012 67.98 60.872 69.733 60.872 69.733 65.412 70.646 65.412 70.646 60.872 72.405 60.872 72.405 60.012 67.98 60.012"/><path class="cls-1" d="M78.3756,61.5348a.9972.9972,0,0,0-1.0589-.831.853.853,0,0,0-.928.7777.7006.7006,0,0,0,.6321.6935l.7761.16a1.5917,1.5917,0,0,1,1.4614,1.552,1.7226,1.7226,0,0,1-1.9109,1.6377,1.92,1.92,0,0,1-2.0871-1.66l.8536-.2425a1.1616,1.1616,0,0,0,1.2335,1.0815c.6467,0,.983-.3282.983-.7469,0-.3508-.2587-.6321-.7243-.7307l-.7615-.16a1.5338,1.5338,0,0,1-1.3709-1.5164,1.9083,1.9083,0,0,1,3.7248-.2732Z"/><path class="cls-1" d="M82.7184,64.657a1.9556,1.9556,0,1,0-1.8042-1.95,1.8006,1.8006,0,0,0,1.8042,1.95m0-4.76a2.8148,2.8148,0,1,1-2.7419,2.81,2.7092,2.7092,0,0,1,2.7419-2.81"/><polygon class="cls-1" points="86.555 60.012 86.555 65.412 89.944 65.412 89.944 64.544 87.469 64.544 87.469 60.012 86.555 60.012"/><path class="cls-1" d="M90.507,63.53V60.0121h.9069v3.4645a1.1066,1.1066,0,1,0,2.2084,0V60.0121h.9134V63.53a2.0144,2.0144,0,0,1-4.0287,0"/><polygon class="cls-1" points="95.332 60.012 95.332 60.872 97.084 60.872 97.084 65.412 97.998 65.412 97.998 60.872 99.757 60.872 99.757 60.012 95.332 60.012"/><rect class="cls-1" x="100.5836" y="60.0122" width="0.9296" height="5.3997"/><path class="cls-1" d="M105.3373,64.657a1.9556,1.9556,0,1,0-1.8042-1.95,1.8006,1.8006,0,0,0,1.8042,1.95m0-4.76a2.8148,2.8148,0,1,1-2.7419,2.81,2.7092,2.7092,0,0,1,2.7419-2.81"/><polygon class="cls-1" points="112.791 60.012 112.791 63.842 110.338 60.012 109.174 60.012 109.174 65.412 110.087 65.412 110.087 61.322 112.753 65.412 113.704 65.412 113.704 60.012 112.791 60.012"/><path class="cls-1" d="M117.8573,61.5348a.9974.9974,0,0,0-1.0589-.831.853.853,0,0,0-.928.7777.6991.6991,0,0,0,.63.6935l.7776.16a1.5917,1.5917,0,0,1,1.4615,1.552,1.7226,1.7226,0,0,1-1.9109,1.6377,1.92,1.92,0,0,1-2.0872-1.66l.8537-.2425a1.1616,1.1616,0,0,0,1.2335,1.0815c.6467,0,.9829-.3282.9829-.7469,0-.3508-.2586-.6321-.7242-.7307l-.7615-.16a1.5339,1.5339,0,0,1-1.371-1.5164,1.9083,1.9083,0,0,1,3.7249-.2732Z"/><path class="cls-1" d="M123.9037,62.4948a.8427.8427,0,1,0,0-1.6765h-.9522v1.6765Zm-.9522.8067v2.11h-.9134v-5.4h2.003a1.6466,1.6466,0,1,1,0,3.29Z"/><path class="cls-1" d="M128.3522,61.0015l.8213,2.2084h-1.6442Zm-.5109-.9894-2.1017,5.4h.9668l.5028-1.3564h2.2844l.5109,1.3564h.9975l-2.1017-5.4Z"/><path class="cls-1" d="M133.7214,62.4719a.8326.8326,0,1,0,0-1.6539H132.74v1.6539Zm-.312.8067H132.74V65.411h-.9215v-5.4H133.89a1.5949,1.5949,0,0,1,1.6911,1.6377,1.5257,1.5257,0,0,1-1.219,1.539l1.219,2.223h-1.0363Z"/><polygon class="cls-1" points="136.176 60.012 136.176 60.872 137.927 60.872 137.927 65.412 138.84 65.412 138.84 60.872 140.599 60.872 140.599 60.012 136.176 60.012"/><polygon class="cls-1" points="145.044 60.012 145.044 63.842 142.592 60.012 141.428 60.012 141.428 65.412 142.341 65.412 142.341 61.322 145.007 65.412 145.957 65.412 145.957 60.012 145.044 60.012"/><polygon class="cls-1" points="147.358 60.012 147.358 65.412 150.693 65.412 150.693 64.558 148.271 64.558 148.271 63.126 150.465 63.126 150.465 62.296 148.271 62.296 148.271 60.864 150.693 60.864 150.693 60.012 147.358 60.012"/><path class="cls-1" d="M153.7976,62.4719a.8326.8326,0,1,0,0-1.6539h-.9813v1.6539Zm-.312.8067h-.6693V65.411h-.9215v-5.4h2.071a1.5949,1.5949,0,0,1,1.691,1.6377,1.5257,1.5257,0,0,1-1.219,1.539l1.219,2.223h-1.0363Z"/><path class="cls-1" d="M159.45,61.5348a.9972.9972,0,0,0-1.0589-.831.8546.8546,0,0,0-.93.7777.7006.7006,0,0,0,.6321.6935l.7776.16a1.5917,1.5917,0,0,1,1.4615,1.552,1.7226,1.7226,0,0,1-1.9109,1.6377,1.92,1.92,0,0,1-2.0872-1.66l.8537-.2425a1.1605,1.1605,0,0,0,1.2335,1.0815c.6467,0,.9829-.3282.9829-.7469,0-.3508-.2586-.6321-.7242-.7307l-.7615-.16a1.5339,1.5339,0,0,1-1.371-1.5164,1.9083,1.9083,0,0,1,3.7249-.2732Z"/><path class="cls-1" d="M70.2764,40.5361c0,5.2358,1.1729,6.5646,7.268,6.9545v.6254S68.0882,47.96,65.43,47.96c-2.656,0-12.1106.1559-12.1106.1559v-.6254c6.1731-.39,7.2664-1.7187,7.2664-6.9545V7.8723c0-5.2357-1.0933-6.5646-7.2664-6.8765V.2924s9.4546.156,12.1106.156c2.6577,0,12.1139-.156,12.1139-.156V.9958c-6.0951.3119-7.268,1.6408-7.268,6.8765Z"/><path class="cls-1" d="M106.2654,39.0518c0-4.4544-2.7357-7.4239-9.7681-11.7224C87.8241,22.0157,83.76,18.4223,83.76,12.0136,83.76,5.449,89.3869-.3325,99.7008-.3325c4.69,0,8.4393.8593,12.3478,1.0932a4.8084,4.8084,0,0,0,1.0933.078c-.078,1.8763-.156,3.751-.156,5.6273,0,1.7967.078,5,.156,6.8765h-.6254c-1.4052-5.7053-5.5477-12.0343-11.7208-12.0343-5.6273,0-7.58,3.2035-7.58,6.7206,0,4.3764,2.5,7.0324,8.7528,11.0969,9.2207,6.0155,14.1429,9.4546,14.1429,16.1751,0,7.7359-7.502,13.5191-18.5989,13.5191-4.61,0-8.8292-1.5627-13.2056-1.6407-.2339-5.0019-.39-8.9867-.9373-12.5818h.7034C85.7918,40.3027,90.48,47.1,97.3566,47.1c7.8155,0,8.9088-4.5307,8.9088-8.0478"/><path class="cls-1" d="M142.6813.2924c11.8783,0,17.8175,5.5477,17.8175,13.909,0,8.0494-6.4086,13.519-13.9886,13.519a16.3168,16.3168,0,0,1-6.4866-1.3288v-.4679a9.6337,9.6337,0,0,0,2.0323.156c5.3917,0,7.9714-3.8289,7.9714-10.941,0-9.2986-3.4391-13.2835-10.16-13.2835a14.3364,14.3364,0,0,0-3.9069.47c-.078,2.5-.078,4.61-.078,7.0324v31.179c0,5.2358,1.7967,6.5646,9.4546,6.9545v.6254s-11.6428-.1559-14.2989-.1559c-2.6577,0-12.1122.1559-12.1122.1559v-.6254c6.1731-.39,7.2663-1.7187,7.2663-6.9545V7.8723c0-5.2357-1.0932-6.5646-7.2663-6.8765V.2924s8.1257.156,10.7834.156c2.4221,0,4.5323-.078,6.6409-.078,2.11-.078,4.1425-.078,6.3307-.078"/><path class="cls-1" d="M6.3512,13.0545A.6621.6621,0,0,0,6.4,12.98l4.633-8.0266,6.269,7.2436L14.8262,21.43.7305,22.7982Z"/><polygon class="cls-1" points="13.424 4.105 32.535 4.105 28.627 7.991 19.016 10.566 13.424 4.105"/><polygon class="cls-1" points="37.775 15.92 30.91 9.053 35.146 4.844 44.037 20.241 37.775 15.92"/><polygon class="cls-1" points="17.074 22.174 19.571 12.864 28.881 10.369 35.698 17.184 33.202 26.494 23.891 28.989 17.074 22.174"/><polygon class="cls-1" points="0.499 25.196 11.017 43.413 21.937 30.38 15.317 23.757 0.499 25.196"/><polygon class="cls-1" points="13.37 44.288 24.204 31.352 33.085 28.972 34.136 44.288 13.37 44.288"/><polygon class="cls-1" points="35.358 27.575 37.722 18.756 46.116 24.549 36.315 41.523 35.358 27.575"/></svg>