<svg width="33" height="32" viewBox="0 0 33 32" fill="none" xmlns="http://www.w3.org/2000/svg">
<g clip-path="url(#clip0_33_276)">
<path d="M16.5 32C25.3366 32 32.5 24.8366 32.5 16C32.5 7.16344 25.3366 0 16.5 0C7.66344 0 0.5 7.16344 0.5 16C0.5 24.8366 7.66344 32 16.5 32Z" fill="#F3BA2F"/>
<path d="M12.616 14.404L16.5 10.52L20.386 14.406L22.646 12.146L16.5 6L10.356 12.144L12.616 14.404ZM6.5 16L8.76 13.74L11.02 16L8.76 18.26L6.5 16ZM12.616 17.596L16.5 21.48L20.386 17.594L22.646 19.853L16.5 26L10.356 19.856L10.353 19.853L12.616 17.596ZM21.98 16L24.24 13.74L26.5 16L24.24 18.26L21.98 16ZM18.792 15.998H18.794V16L16.5 18.294L14.209 16.004L14.205 16L14.209 15.997L14.61 15.595L14.805 15.4L16.5 13.706L18.793 15.999L18.792 15.998Z" fill="white"/>
</g>
<defs>
<clipPath id="clip0_33_276">
<rect width="32" height="32" fill="white" transform="translate(0.5)"/>
</clipPath>
</defs>
</svg>
