<svg width="133" height="39" viewBox="0 0 133 39" fill="none" xmlns="http://www.w3.org/2000/svg">
<path d="M58.6467 36.4794C58.1553 36.4885 57.6693 36.3765 57.2316 36.1531C56.826 35.9446 56.4896 35.6228 56.2634 35.2268C56.034 34.8023 55.9139 34.3274 55.9139 33.8449C55.9139 33.3625 56.034 32.8875 56.2634 32.463C56.4938 32.0648 56.8323 31.7399 57.2397 31.526C57.6773 31.2989 58.1646 31.1844 58.6575 31.1928C59.0095 31.1827 59.3592 31.2531 59.6799 31.3987V32.371C59.3692 32.2076 59.0218 32.127 58.671 32.1367C58.3655 32.1309 58.0638 32.2042 57.7949 32.3493C57.5434 32.4892 57.3379 32.699 57.2031 32.9532C57.0566 33.2304 56.983 33.5403 56.9892 33.8537C56.983 34.1632 57.0577 34.469 57.2058 34.7407C57.3452 34.9916 57.5533 35.1974 57.8057 35.3338C58.0744 35.4767 58.3749 35.5489 58.6792 35.5437C59.0316 35.5529 59.3807 35.4723 59.6934 35.3095V36.2574C59.3681 36.4164 59.0085 36.4927 58.6467 36.4794Z" fill="#ADA9B3"/>
<path d="M67.802 33.1441C67.9057 32.9414 68.0706 32.7766 68.2733 32.6729C68.5085 32.5687 68.7653 32.5223 69.0221 32.5375L69.6044 32.5443L69.427 32.7704C69.3772 32.8396 69.332 32.912 69.2916 32.9871C69.232 33.0886 69.1832 33.178 69.1453 33.2579L69.0248 33.5057C68.5996 33.5057 68.2886 33.5924 68.0918 33.7657C67.8955 33.9377 67.7966 34.2423 67.7966 34.677V36.3941H66.7823V32.5551L67.7763 32.7677V33.1441H67.802Z" fill="#ADA9B3"/>
<path d="M78.3684 34.8689L79.2404 32.5547H80.2628L78.1977 37.8142H77.1835L77.9215 35.9902L76.3101 32.5547H77.3744L78.3684 34.8689Z" fill="#ADA9B3"/>
<path d="M88.4486 33.1089C88.7195 32.6783 89.1334 32.463 89.6904 32.463C90.0097 32.4598 90.3233 32.5471 90.595 32.7148C90.8714 32.8875 91.0949 33.133 91.2409 33.4244C91.4035 33.749 91.4848 34.1082 91.4779 34.4712C91.4844 34.8362 91.4007 35.1971 91.2341 35.522C91.0837 35.8148 90.8567 36.0614 90.5774 36.2356C90.306 36.4018 89.9937 36.4891 89.6755 36.4875C89.425 36.4946 89.1766 36.4397 88.9524 36.3277C88.7481 36.2159 88.5785 36.0501 88.4622 35.8483H88.4338V37.8146H87.4263V32.5551L88.427 32.7677V33.1089H88.4486ZM89.9815 35.4597C90.137 35.36 90.2621 35.2195 90.3431 35.0535C90.4347 34.8732 90.4811 34.6734 90.4785 34.4712C90.4894 34.1758 90.3867 33.8874 90.1914 33.6655C90.1002 33.5635 89.9879 33.4825 89.8624 33.428C89.7369 33.3736 89.6011 33.3469 89.4643 33.3499C89.3261 33.3457 89.1887 33.3718 89.0617 33.4263C88.9347 33.4808 88.8211 33.5624 88.729 33.6655C88.542 33.8937 88.4399 34.1796 88.4399 34.4746C88.4399 34.7695 88.542 35.0554 88.729 35.2837C88.8869 35.4508 89.0973 35.5588 89.3252 35.5899C89.553 35.6209 89.7846 35.5731 89.9815 35.4543V35.4597Z" fill="#ADA9B3"/>
<path d="M100.211 31.5906V32.5548H100.999V33.3497H100.211V36.3938H99.1965V33.3497H98.5925L98.8769 32.5548H99.1965V31.2358L100.211 31.5906Z" fill="#ADA9B3"/>
<path d="M108.17 33.446C108.339 33.1442 108.588 32.8949 108.889 32.7256C109.211 32.5531 109.571 32.4629 109.936 32.4629C110.301 32.4629 110.661 32.5531 110.983 32.7256C111.285 32.8944 111.535 33.1438 111.703 33.446C111.874 33.7622 111.963 34.1159 111.963 34.4752C111.963 34.8345 111.874 35.1881 111.703 35.5043C111.534 35.8062 111.285 36.0555 110.983 36.2247C110.661 36.3972 110.301 36.4874 109.936 36.4874C109.571 36.4874 109.211 36.3972 108.889 36.2247C108.588 36.0551 108.34 35.8058 108.17 35.5043C108 35.1881 107.91 34.8345 107.91 34.4752C107.91 34.1159 108 33.7622 108.17 33.446ZM110.455 35.4474C110.61 35.3478 110.735 35.2072 110.816 35.0412C110.907 34.8631 110.954 34.6656 110.952 34.4657C110.965 34.1679 110.862 33.8766 110.665 33.6532C110.571 33.5539 110.459 33.4748 110.334 33.4207C110.209 33.3666 110.074 33.3387 109.938 33.3387C109.801 33.3387 109.667 33.3666 109.541 33.4207C109.416 33.4748 109.304 33.5539 109.21 33.6532C109.024 33.8803 108.922 34.1651 108.922 34.4589C108.922 34.7527 109.024 35.0375 109.21 35.2646C109.302 35.3666 109.414 35.4476 109.539 35.502C109.665 35.5565 109.801 35.5831 109.938 35.5801C110.119 35.5854 110.298 35.5394 110.455 35.4474Z" fill="#ADA9B3"/>
<path d="M7.70373 38.3616L12.32 23.7558L0 14.6532L15.3181 14.53L20.1686 0L25.0178 14.53L7.70373 38.3616Z" fill="url(#paint0_linear_33_279)"/>
<path d="M32.6335 38.363L21.386 30.3275L28.0159 23.7559L32.6335 38.363Z" fill="url(#paint1_linear_33_279)"/>
<path d="M40.409 26.995C38.7016 26.0696 37.2908 24.68 36.3398 22.9868C35.3648 21.2715 34.8773 19.2958 34.8773 17.0597C34.8773 14.8461 35.3648 12.8758 36.3398 11.1488C37.2878 9.44943 38.6989 8.05424 40.409 7.12567C42.145 6.17145 44.1203 5.69434 46.3347 5.69434C48.5492 5.69434 50.5303 6.17145 52.2781 7.12567C53.992 8.05185 55.4064 9.44744 56.3554 11.1488C57.3304 12.8758 57.8179 14.8461 57.8179 17.0597C57.8179 19.2949 57.3304 21.2706 56.3554 22.9868C55.4076 24.6769 54.003 26.066 52.3025 26.995C50.5809 27.9501 48.602 28.4273 46.3659 28.4264C44.1297 28.4255 42.1441 27.9483 40.409 26.995ZM49.8555 23.4742C50.8993 22.8779 51.7504 21.9949 52.3079 20.9298C52.8965 19.833 53.1912 18.5632 53.1921 17.1206C53.1921 15.6581 52.8974 14.3681 52.3079 13.2505C51.7538 12.1714 50.903 11.273 49.8555 10.6613C48.7756 10.0433 47.5491 9.72752 46.3049 9.74729C45.0755 9.7287 43.8642 10.0446 42.8004 10.6613C41.7609 11.2747 40.9195 12.1739 40.3765 13.2518C39.7969 14.3703 39.5076 15.6604 39.5085 17.122C39.5085 18.5664 39.8028 19.8361 40.3914 20.9312C40.9439 21.9897 41.7835 22.871 42.814 23.4742C43.8749 24.083 45.0806 24.3937 46.3036 24.3734C47.5463 24.3938 48.7722 24.0835 49.8555 23.4742Z" fill="white"/>
<path d="M73.9132 7.8422C75.4976 9.01128 76.2898 10.7243 76.2898 12.9812C76.2898 14.626 75.9038 16.0023 75.132 17.11C74.3601 18.2177 73.2632 19.0356 71.8414 19.5637L77.7509 28.0311H72.4805L67.3619 20.2936H65.1072V28.0338H60.5654V6.09671H67.5135C70.1966 6.09219 72.3298 6.67402 73.9132 7.8422ZM70.4547 15.8411C71.2564 15.2318 71.6577 14.3177 71.6586 13.099C71.6586 12.0021 71.2623 11.1743 70.4696 10.6155C69.677 10.0567 68.5698 9.77727 67.1479 9.77727H65.1072V16.7552H67.0531C68.5183 16.7552 69.6522 16.4505 70.4547 15.8411Z" fill="white"/>
<path d="M80.4957 28.0304V6.09326H85.0362V28.0304H80.4957Z" fill="white"/>
<path d="M93.3087 26.995C91.6038 26.0686 90.1955 24.6791 89.2463 22.9868C88.2713 21.2715 87.7838 19.2958 87.7838 17.0597C87.7838 14.8461 88.2713 12.8758 89.2463 11.1488C90.1927 9.45054 91.6013 8.0555 93.3087 7.12567C95.0465 6.17145 97.0222 5.69434 99.2358 5.69434C101.449 5.69434 103.43 6.17145 105.179 7.12567C106.895 8.05103 108.311 9.44669 109.262 11.1488C110.237 12.8758 110.724 14.8461 110.724 17.0597C110.724 19.2949 110.237 21.2706 109.262 22.9868C108.314 24.6769 106.909 26.066 105.209 26.995C103.483 27.9501 101.502 28.4273 99.267 28.4264C97.0317 28.4255 95.0456 27.9483 93.3087 26.995ZM102.757 23.4742C103.8 22.8779 104.651 21.9949 105.209 20.9298C105.798 19.833 106.093 18.5632 106.093 17.1206C106.093 15.6581 105.798 14.3681 105.209 13.2505C104.655 12.1714 103.804 11.273 102.757 10.6613C101.677 10.0433 100.45 9.72752 99.206 9.74729C97.9766 9.72849 96.7652 10.0445 95.7015 10.6613C94.6621 11.2744 93.8211 12.1737 93.2789 13.2518C92.6994 14.3703 92.4096 15.6604 92.4096 17.122C92.4096 18.5664 92.7043 19.8361 93.2938 20.9312C93.8457 21.9905 94.6854 22.8724 95.7164 23.4756C96.7772 24.0845 97.983 24.3952 99.206 24.3748C100.448 24.3945 101.674 24.0837 102.757 23.4742Z" fill="white"/>
<path d="M128.703 6.08936H133V28.0265H130.075L117.733 13.8906V28.0306H113.466V6.09342H116.393L128.703 20.2632V6.08936Z" fill="white"/>
<defs>
<linearGradient id="paint0_linear_33_279" x1="11.6023" y1="16.01" x2="30.601" y2="41.8133" gradientUnits="userSpaceOnUse">
<stop stop-color="#A382D6"/>
<stop offset="0.1" stop-color="#977CDC"/>
<stop offset="0.27" stop-color="#8A75E2"/>
<stop offset="0.43" stop-color="#8673E4"/>
<stop offset="0.55" stop-color="#7F78E5"/>
<stop offset="0.73" stop-color="#6B86E7"/>
<stop offset="0.95" stop-color="#4A9DEB"/>
<stop offset="0.97" stop-color="#46A0EC"/>
</linearGradient>
<linearGradient id="paint1_linear_33_279" x1="14.8292" y1="13.6336" x2="33.8279" y2="39.4382" gradientUnits="userSpaceOnUse">
<stop stop-color="#A382D6"/>
<stop offset="0.1" stop-color="#977CDC"/>
<stop offset="0.27" stop-color="#8A75E2"/>
<stop offset="0.43" stop-color="#8673E4"/>
<stop offset="0.55" stop-color="#7F78E5"/>
<stop offset="0.73" stop-color="#6B86E7"/>
<stop offset="0.95" stop-color="#4A9DEB"/>
<stop offset="0.97" stop-color="#46A0EC"/>
</linearGradient>
</defs>
</svg>
