<svg width="33" height="32" viewBox="0 0 33 32" fill="none" xmlns="http://www.w3.org/2000/svg">
<g clip-path="url(#clip0_42_2)">
<path d="M16.5 32C25.3366 32 32.5 24.8366 32.5 16C32.5 7.16344 25.3366 0 16.5 0C7.66344 0 0.5 7.16344 0.5 16C0.5 24.8366 7.66344 32 16.5 32Z" fill="#26A17B"/>
<path fill-rule="evenodd" clip-rule="evenodd" d="M18.422 17.3828V17.3808C18.312 17.3888 17.745 17.4228 16.48 17.4228C15.47 17.4228 14.759 17.3928 14.509 17.3808V17.3838C10.621 17.2128 7.71905 16.5358 7.71905 15.7258C7.71905 14.9168 10.621 14.2398 14.509 14.0658V16.7098C14.763 16.7278 15.491 16.7708 16.497 16.7708C17.704 16.7708 18.309 16.7208 18.422 16.7108V14.0678C22.302 14.2408 25.197 14.9178 25.197 15.7258C25.197 16.5358 22.302 17.2108 18.422 17.3828ZM18.422 13.7928V11.4268H23.836V7.81885H9.09505V11.4268H14.509V13.7918C10.109 13.9938 6.80005 14.8658 6.80005 15.9098C6.80005 16.9538 10.109 17.8248 14.509 18.0278V25.6098H18.422V18.0258C22.8151 17.8238 26.116 16.9528 26.116 15.9098C26.116 14.8668 22.8151 13.9958 18.422 13.7928Z" fill="white"/>
</g>
<defs>
<clipPath id="clip0_42_2">
<rect width="32" height="32" fill="white" transform="translate(0.5)"/>
</clipPath>
</defs>
</svg>
